<?xml version="1.0" encoding="iso-8859-1"?>
<!-- Uploaded to: SVG Repo, www.svgrepo.com, Generator: SVG Repo Mixer Tools -->
<svg version="1.1" id="Layer_1" xmlns="http://www.w3.org/2000/svg" xmlns:xlink="http://www.w3.org/1999/xlink" 
	 viewBox="0 0 512 512" xml:space="preserve">
<polygon style="fill:#554F4E;" points="478.242,236.308 444.484,371.341 478.242,500.747 512,500.747 512,236.308 "/>
<polygon style="fill:#7F7774;" points="0,236.308 0,500.747 33.758,500.747 478.242,371.341 478.242,236.308 "/>
<g>
	<polygon style="fill:#FFFFFF;" points="209.381,371.341 175.623,371.341 138.248,455.736 160.753,512 224.252,512 246.757,455.736 
			"/>
	<polygon style="fill:#FFFFFF;" points="82.386,371.341 33.758,371.341 33.758,512 97.256,512 119.762,455.736 	"/>
	<polygon style="fill:#FFFFFF;" points="336.376,371.341 287.749,371.341 253.99,455.736 287.749,512 351.247,512 362.499,455.736 	
		"/>
	<polygon style="fill:#FFFFFF;" points="429.614,371.341 403.491,455.736 414.744,512 478.242,512 478.242,371.341 	"/>
</g>
<g>
	<polygon style="fill:#FFF3D4;" points="145.884,371.341 112.126,371.341 97.256,455.736 97.256,512 160.753,512 160.753,455.736 	
		"/>
	<polygon style="fill:#FFF3D4;" points="399.874,371.341 366.116,371.341 351.247,455.736 351.247,512 414.744,512 414.744,455.736 
			"/>
	<polygon style="fill:#FFF3D4;" points="239.121,371.341 224.252,455.736 224.252,512 287.749,512 287.749,371.341 	"/>
</g>
<g>
	<rect x="82.381" y="371.341" style="fill:#554F4E;" width="29.74" height="84.396"/>
	<rect x="209.38" y="371.341" style="fill:#554F4E;" width="29.74" height="84.396"/>
	<rect x="145.881" y="371.341" style="fill:#554F4E;" width="29.74" height="84.396"/>
	<rect x="336.378" y="371.341" style="fill:#554F4E;" width="29.74" height="84.396"/>
	<rect x="399.878" y="371.341" style="fill:#554F4E;" width="29.74" height="84.396"/>
</g>
<polygon style="fill:#A99E9B;" points="233.495,281.319 256,337.582 478.242,337.582 478.242,303.824 "/>
<g>
	<polygon style="fill:#C1B8B5;" points="33.758,303.824 33.758,337.582 256,337.582 256,281.319 	"/>
	<polygon style="fill:#C1B8B5;" points="444.484,0 399.473,151.912 444.484,303.824 478.242,303.824 478.242,0 	"/>
</g>
<path style="fill:#D8D1D0;" d="M289.758,0C271.191,0,256,15.191,256,33.758L199.736,185.67L256,337.582
	c0-18.567,15.191-33.758,33.758-33.758h154.725V0H289.758z"/>
<path style="fill:#F0EBEA;" d="M222.242,0H33.758v303.824h188.484c18.567,0,33.758,15.191,33.758,33.758V33.758
	C256,15.191,240.809,0,222.242,0z"/>
<path style="fill:#554F4E;" d="M384.91,98.511c-11.202-1.215-14.976-1.624-14.976-14.115c0-4.662-3.778-8.44-8.44-8.44
	c-4.662,0-8.44,3.778-8.44,8.44v96.774c-2.64-0.726-5.48-1.125-8.44-1.125c-13.983,0-25.319,8.817-25.319,19.692
	c0,10.876,11.336,19.692,25.319,19.692c13.983,0,25.319-8.817,25.319-19.692v-86.985c4.566,1.608,9.307,2.122,13.156,2.54
	c11.202,1.215,14.976,1.624,14.976,14.115c0,4.662,3.778,8.44,8.44,8.44s8.44-3.778,8.44-8.44
	C414.945,101.768,396.144,99.729,384.91,98.511z"/>
</svg>